# xmcd CD database file
#
# Track frame offsets:
#	150
#	45350
#	93825
#	127675
#	151597
#
# Disc length: 2438 seconds
#
# Revision: 0
# Processed by: cddbd v1.5.1PL0 Copyright (c) Steve Scherf et al.
# Submitted via: CDex 1.51
#
DISCID=24098405
DTITLE=Hank Mobley - Workout
DYEAR=1961
DGENRE=Jazz
TTITLE0=Workout
TTITLE1=Uh Huh
TTITLE2=Smokin'
TTITLE3=The Best Things In Life Are Free
TTITLE4=Greasin' Easy
EXTD=YEAR: 1961
EXTT0=
EXTT1=
EXTT2=
EXTT3=
EXTT4=
PLAYORDER=
